<svg width="21" height="19" viewBox="0 0 21 19" fill="none" xmlns="http://www.w3.org/2000/svg">
<path d="M2.50004 13H18.5V2H2.50004V13ZM11.5 15V17H15.5V19H5.50004V17H9.50004V15H1.49204C1.36073 14.9992 1.23086 14.9725 1.10988 14.9215C0.988899 14.8704 0.879188 14.7959 0.787032 14.7024C0.694877 14.6088 0.622089 14.498 0.572841 14.3763C0.523594 14.2546 0.498854 14.1243 0.500041 13.993V1.007C0.500041 0.451 0.955041 0 1.49204 0H19.508C20.056 0 20.5 0.449 20.5 1.007V13.993C20.5 14.549 20.045 15 19.508 15H11.5Z" fill="#123247"/>
</svg>
