<svg width="12" height="12" viewBox="0 0 12 12" fill="none" xmlns="http://www.w3.org/2000/svg">
<g clip-path="url(#clip0_522_5030)">
<path d="M12 6C12 2.68632 9.31368 0 6 0C2.68632 0 0 2.68632 0 6C0 8.81376 1.93728 11.1749 4.55064 11.8234V7.8336H3.31344V6H4.55064V5.20992C4.55064 3.16776 5.47488 2.2212 7.47984 2.2212C7.86 2.2212 8.51592 2.29584 8.78424 2.37024V4.03224C8.64264 4.01736 8.39664 4.00992 8.09112 4.00992C7.10736 4.00992 6.7272 4.38264 6.7272 5.35152V6H8.68704L8.35032 7.8336H6.7272V11.9561C9.69816 11.5973 12.0002 9.06768 12.0002 6H12Z" fill="#0866FF"/>
<path d="M8.34938 7.83359L8.6861 5.99999H6.72626V5.35151C6.72626 4.38263 7.10642 4.00991 8.09018 4.00991C8.3957 4.00991 8.6417 4.01735 8.7833 4.03223V2.37023C8.51498 2.29559 7.85906 2.22119 7.4789 2.22119C5.47394 2.22119 4.5497 3.16775 4.5497 5.20991V5.99999H3.3125V7.83359H4.5497V11.8234C5.01386 11.9386 5.49938 12 5.99906 12C6.24506 12 6.4877 11.9849 6.72602 11.9561V7.83359H8.34914H8.34938Z" fill="white"/>
</g>
<defs>
<clipPath id="clip0_522_5030">
<rect width="12" height="12" fill="white"/>
</clipPath>
</defs>
</svg>
