<svg width="24" height="24" viewBox="0 0 24 24" fill="none" xmlns="http://www.w3.org/2000/svg">
<path d="M11.5055 4C11.983 4 12.4558 4.09406 12.897 4.2768C13.3382 4.45955 13.7391 4.7274 14.0768 5.06507C14.4144 5.40273 14.6823 5.8036 14.865 6.24479C15.0478 6.68597 15.1418 7.15883 15.1418 7.63636V10.5455C15.1418 11.5099 14.7587 12.4348 14.0768 13.1168C13.3948 13.7987 12.4699 14.1818 11.5055 14.1818C10.541 14.1818 9.61611 13.7987 8.93416 13.1168C8.25221 12.4348 7.86909 11.5099 7.86909 10.5455V7.63636C7.86909 6.67194 8.25221 5.74702 8.93416 5.06507C9.61611 4.38312 10.541 4 11.5055 4ZM5 11.2727H6.46545C6.64167 12.4835 7.2479 13.5903 8.17326 14.3907C9.09861 15.1912 10.2812 15.6317 11.5047 15.6317C12.7282 15.6317 13.9108 15.1912 14.8362 14.3907C15.7615 13.5903 16.3678 12.4835 16.544 11.2727H18.0102C17.8448 12.7482 17.183 14.1236 16.1332 15.1735C15.0835 16.2234 13.7081 16.8854 12.2327 17.0509V20H10.7782V17.0509C9.30264 16.8855 7.92711 16.2236 6.87722 15.1737C5.82732 14.1238 5.16539 12.7483 5 11.2727Z" fill="#123247"/>
</svg>
