<svg width="21" height="20" viewBox="0 0 21 20" fill="none" xmlns="http://www.w3.org/2000/svg">
<path d="M10.5 9C11.8261 9 13.0979 9.52678 14.0355 10.4645C14.9732 11.4021 15.5 12.6739 15.5 14V20H13.5V14C13.5 13.2348 13.2077 12.4985 12.6827 11.9417C12.1578 11.385 11.4399 11.0499 10.676 11.005L10.5 11C9.73479 11 8.99849 11.2923 8.44174 11.8173C7.88499 12.3422 7.54989 13.0601 7.505 13.824L7.5 14V20H5.5V14C5.5 12.6739 6.02678 11.4021 6.96447 10.4645C7.90215 9.52678 9.17392 9 10.5 9ZM4 12C4.279 12 4.55 12.033 4.81 12.094C4.63902 12.603 4.53777 13.1328 4.509 13.669L4.5 14V14.086C4.38505 14.0449 4.26549 14.018 4.144 14.006L4 14C3.62712 14 3.26761 14.1389 2.99158 14.3896C2.71555 14.6403 2.5428 14.9848 2.507 15.356L2.5 15.5V20H0.5V15.5C0.5 14.5717 0.868749 13.6815 1.52513 13.0251C2.1815 12.3687 3.07174 12 4 12ZM17 12C17.9283 12 18.8185 12.3687 19.4749 13.0251C20.1313 13.6815 20.5 14.5717 20.5 15.5V20H18.5V15.5C18.5 15.1271 18.3611 14.7676 18.1104 14.4916C17.8597 14.2156 17.5152 14.0428 17.144 14.007L17 14C16.825 14 16.657 14.03 16.5 14.085V14C16.5 13.334 16.392 12.694 16.191 12.096C16.45 12.033 16.721 12 17 12ZM4 6C4.66304 6 5.29893 6.26339 5.76777 6.73223C6.23661 7.20107 6.5 7.83696 6.5 8.5C6.5 9.16304 6.23661 9.79893 5.76777 10.2678C5.29893 10.7366 4.66304 11 4 11C3.33696 11 2.70107 10.7366 2.23223 10.2678C1.76339 9.79893 1.5 9.16304 1.5 8.5C1.5 7.83696 1.76339 7.20107 2.23223 6.73223C2.70107 6.26339 3.33696 6 4 6ZM17 6C17.663 6 18.2989 6.26339 18.7678 6.73223C19.2366 7.20107 19.5 7.83696 19.5 8.5C19.5 9.16304 19.2366 9.79893 18.7678 10.2678C18.2989 10.7366 17.663 11 17 11C16.337 11 15.7011 10.7366 15.2322 10.2678C14.7634 9.79893 14.5 9.16304 14.5 8.5C14.5 7.83696 14.7634 7.20107 15.2322 6.73223C15.7011 6.26339 16.337 6 17 6ZM4 8C3.86739 8 3.74021 8.05268 3.64645 8.14645C3.55268 8.24021 3.5 8.36739 3.5 8.5C3.5 8.63261 3.55268 8.75979 3.64645 8.85355C3.74021 8.94732 3.86739 9 4 9C4.13261 9 4.25979 8.94732 4.35355 8.85355C4.44732 8.75979 4.5 8.63261 4.5 8.5C4.5 8.36739 4.44732 8.24021 4.35355 8.14645C4.25979 8.05268 4.13261 8 4 8ZM17 8C16.8674 8 16.7402 8.05268 16.6464 8.14645C16.5527 8.24021 16.5 8.36739 16.5 8.5C16.5 8.63261 16.5527 8.75979 16.6464 8.85355C16.7402 8.94732 16.8674 9 17 9C17.1326 9 17.2598 8.94732 17.3536 8.85355C17.4473 8.75979 17.5 8.63261 17.5 8.5C17.5 8.36739 17.4473 8.24021 17.3536 8.14645C17.2598 8.05268 17.1326 8 17 8ZM10.5 0C11.5609 0 12.5783 0.421427 13.3284 1.17157C14.0786 1.92172 14.5 2.93913 14.5 4C14.5 5.06087 14.0786 6.07828 13.3284 6.82843C12.5783 7.57857 11.5609 8 10.5 8C9.43913 8 8.42172 7.57857 7.67157 6.82843C6.92143 6.07828 6.5 5.06087 6.5 4C6.5 2.93913 6.92143 1.92172 7.67157 1.17157C8.42172 0.421427 9.43913 0 10.5 0ZM10.5 2C9.96957 2 9.46086 2.21071 9.08579 2.58579C8.71071 2.96086 8.5 3.46957 8.5 4C8.5 4.53043 8.71071 5.03914 9.08579 5.41421C9.46086 5.78929 9.96957 6 10.5 6C11.0304 6 11.5391 5.78929 11.9142 5.41421C12.2893 5.03914 12.5 4.53043 12.5 4C12.5 3.46957 12.2893 2.96086 11.9142 2.58579C11.5391 2.21071 11.0304 2 10.5 2Z" fill="#123247"/>
</svg>
