<svg width="12" height="12" viewBox="0 0 12 12" fill="none" xmlns="http://www.w3.org/2000/svg">
<g clip-path="url(#clip0_522_5025)">
<path d="M6 0C2.68641 0 0 2.68641 0 6C0 7.65703 0.671719 9.15703 1.75734 10.2427L0.614531 11.3855C0.387656 11.6123 0.548438 12 0.869063 12H6C9.31359 12 12 9.31359 12 6C12 2.68641 9.31359 0 6 0Z" fill="#FF4500"/>
<path d="M9.40109 7.19721C10.1749 7.19721 10.8022 6.56992 10.8022 5.79611C10.8022 5.02231 10.1749 4.39502 9.40109 4.39502C8.62729 4.39502 8 5.02231 8 5.79611C8 6.56992 8.62729 7.19721 9.40109 7.19721Z" fill="url(#paint0_radial_522_5025)"/>
<path d="M2.59836 7.19721C3.37216 7.19721 3.99945 6.56992 3.99945 5.79611C3.99945 5.02231 3.37216 4.39502 2.59836 4.39502C1.82456 4.39502 1.19727 5.02231 1.19727 5.79611C1.19727 6.56992 1.82456 7.19721 2.59836 7.19721Z" fill="url(#paint1_radial_522_5025)"/>
<path d="M6.00375 9.99976C8.2128 9.99976 10.0036 8.65661 10.0036 6.99976C10.0036 5.3429 8.2128 3.99976 6.00375 3.99976C3.7947 3.99976 2.00391 5.3429 2.00391 6.99976C2.00391 8.65661 3.7947 9.99976 6.00375 9.99976Z" fill="url(#paint2_radial_522_5025)"/>
<path d="M4.81996 6.70824C4.79652 7.21637 4.45902 7.40105 4.06668 7.40105C3.67433 7.40105 3.37433 7.1409 3.39777 6.63277C3.42121 6.12465 3.75871 5.78809 4.15105 5.78809C4.54339 5.78809 4.84339 6.20012 4.81996 6.70824Z" fill="#842123"/>
<path d="M8.60902 6.63229C8.63246 7.14041 8.33293 7.40057 7.94011 7.40057C7.5473 7.40057 7.2098 7.21635 7.18683 6.70775C7.1634 6.19963 7.46293 5.7876 7.85574 5.7876C8.24855 5.7876 8.58605 6.12369 8.60902 6.63229Z" fill="#842123"/>
<path d="M7.18676 6.75245C7.20879 7.22823 7.52426 7.40073 7.89176 7.40073C8.25926 7.40073 8.53957 7.14245 8.51754 6.66667C8.49551 6.19089 8.18004 5.87964 7.81254 5.87964C7.44504 5.87964 7.16473 6.27667 7.18676 6.75245Z" fill="url(#paint3_radial_522_5025)"/>
<path d="M4.82028 6.75245C4.79825 7.22823 4.48278 7.40073 4.11528 7.40073C3.74778 7.40073 3.46746 7.14245 3.4895 6.66667C3.51153 6.19089 3.827 5.87964 4.1945 5.87964C4.562 5.87964 4.84231 6.27667 4.82028 6.75245Z" fill="url(#paint4_radial_522_5025)"/>
<path d="M6.00353 7.73999C5.5076 7.73999 5.03228 7.7639 4.5926 7.80749C4.5176 7.81499 4.46978 7.8914 4.49885 7.95983C4.74494 8.53687 5.32572 8.94233 6.00353 8.94233C6.68135 8.94233 7.26166 8.53687 7.50822 7.95983C7.53728 7.8914 7.48994 7.81499 7.41447 7.80749C6.97478 7.7639 6.49947 7.73999 6.00353 7.73999Z" fill="#BBCFDA"/>
<path d="M6.0028 7.8501C5.50827 7.8501 5.03436 7.87447 4.59608 7.919C4.52108 7.9265 4.47374 8.00432 4.5028 8.07369C4.74843 8.6601 5.32733 9.07166 6.00233 9.07166C6.67733 9.07166 7.25671 8.65963 7.50233 8.07369C7.5314 8.00432 7.48405 7.9265 7.40905 7.919C6.97077 7.87447 6.49686 7.8501 6.00233 7.8501H6.0028Z" fill="white"/>
<path d="M6.00263 7.79297C5.51607 7.79297 5.04966 7.81688 4.61794 7.86047C4.54435 7.86797 4.49748 7.94438 4.52607 8.01281C4.76748 8.58984 5.33748 8.99531 6.00263 8.99531C6.66779 8.99531 7.23732 8.58984 7.47919 8.01281C7.50779 7.94438 7.46091 7.86797 7.38732 7.86047C6.95607 7.81688 6.48966 7.79297 6.00263 7.79297Z" fill="url(#paint5_radial_522_5025)"/>
<path d="M8.19398 3.59207C8.7423 3.59207 9.1868 3.14757 9.1868 2.59926C9.1868 2.05094 8.7423 1.60645 8.19398 1.60645C7.64567 1.60645 7.20117 2.05094 7.20117 2.59926C7.20117 3.14757 7.64567 3.59207 8.19398 3.59207Z" fill="url(#paint6_radial_522_5025)"/>
<path d="M5.98859 4.12649C5.86953 4.12649 5.77344 4.07681 5.77344 3.99993C5.77344 3.11024 6.49719 2.38696 7.38641 2.38696C7.50547 2.38696 7.60156 2.48353 7.60156 2.60212C7.60156 2.72071 7.505 2.81728 7.38641 2.81728C6.73437 2.81728 6.20375 3.3479 6.20375 3.99993C6.20375 4.07681 6.10719 4.12649 5.98859 4.12649Z" fill="url(#paint7_radial_522_5025)"/>
<path d="M4.56023 6.98758C4.56023 7.1718 4.3643 7.2543 4.12289 7.2543C3.88148 7.2543 3.68555 7.1718 3.68555 6.98758C3.68555 6.80336 3.88148 6.6543 4.12289 6.6543C4.3643 6.6543 4.56023 6.80336 4.56023 6.98758Z" fill="#FF6101"/>
<path d="M8.32195 6.98758C8.32195 7.1718 8.12602 7.2543 7.88461 7.2543C7.6432 7.2543 7.44727 7.1718 7.44727 6.98758C7.44727 6.80336 7.6432 6.6543 7.88461 6.6543C8.12602 6.6543 8.32195 6.80336 8.32195 6.98758Z" fill="#FF6101"/>
<path d="M4.4232 6.48806C4.50915 6.48806 4.57883 6.41208 4.57883 6.31837C4.57883 6.22465 4.50915 6.14868 4.4232 6.14868C4.33725 6.14868 4.26758 6.22465 4.26758 6.31837C4.26758 6.41208 4.33725 6.48806 4.4232 6.48806Z" fill="#FFC49C"/>
<path d="M8.12242 6.48806C8.20837 6.48806 8.27805 6.41208 8.27805 6.31837C8.27805 6.22465 8.20837 6.14868 8.12242 6.14868C8.03647 6.14868 7.9668 6.22465 7.9668 6.31837C7.9668 6.41208 8.03647 6.48806 8.12242 6.48806Z" fill="#FFC49C"/>
</g>
<defs>
<radialGradient id="paint0_radial_522_5025" cx="0" cy="0" r="1" gradientUnits="userSpaceOnUse" gradientTransform="translate(9.42227 5.04178) scale(2.80788 2.44943)">
<stop stop-color="#FEFFFF"/>
<stop offset="0.4" stop-color="#FEFFFF"/>
<stop offset="0.51" stop-color="#F9FCFC"/>
<stop offset="0.62" stop-color="#EDF3F5"/>
<stop offset="0.7" stop-color="#DEE9EC"/>
<stop offset="0.72" stop-color="#D8E4E8"/>
<stop offset="0.76" stop-color="#CCD8DF"/>
<stop offset="0.8" stop-color="#C8D5DD"/>
<stop offset="0.83" stop-color="#CCD6DE"/>
<stop offset="0.85" stop-color="#D8DBE2"/>
<stop offset="0.88" stop-color="#EDE3E9"/>
<stop offset="0.9" stop-color="#FFEBEF"/>
</radialGradient>
<radialGradient id="paint1_radial_522_5025" cx="0" cy="0" r="1" gradientUnits="userSpaceOnUse" gradientTransform="translate(2.61954 5.04178) scale(2.80788 2.44943)">
<stop stop-color="#FEFFFF"/>
<stop offset="0.4" stop-color="#FEFFFF"/>
<stop offset="0.51" stop-color="#F9FCFC"/>
<stop offset="0.62" stop-color="#EDF3F5"/>
<stop offset="0.7" stop-color="#DEE9EC"/>
<stop offset="0.72" stop-color="#D8E4E8"/>
<stop offset="0.76" stop-color="#CCD8DF"/>
<stop offset="0.8" stop-color="#C8D5DD"/>
<stop offset="0.83" stop-color="#CCD6DE"/>
<stop offset="0.85" stop-color="#D8DBE2"/>
<stop offset="0.88" stop-color="#EDE3E9"/>
<stop offset="0.9" stop-color="#FFEBEF"/>
</radialGradient>
<radialGradient id="paint2_radial_522_5025" cx="0" cy="0" r="1" gradientUnits="userSpaceOnUse" gradientTransform="translate(6.1105 4.64878) scale(8.46969 5.94681)">
<stop stop-color="#FEFFFF"/>
<stop offset="0.4" stop-color="#FEFFFF"/>
<stop offset="0.51" stop-color="#F9FCFC"/>
<stop offset="0.62" stop-color="#EDF3F5"/>
<stop offset="0.7" stop-color="#DEE9EC"/>
<stop offset="0.72" stop-color="#D8E4E8"/>
<stop offset="0.76" stop-color="#CCD8DF"/>
<stop offset="0.8" stop-color="#C8D5DD"/>
<stop offset="0.83" stop-color="#CCD6DE"/>
<stop offset="0.85" stop-color="#D8DBE2"/>
<stop offset="0.88" stop-color="#EDE3E9"/>
<stop offset="0.9" stop-color="#FFEBEF"/>
</radialGradient>
<radialGradient id="paint3_radial_522_5025" cx="0" cy="0" r="1" gradientUnits="userSpaceOnUse" gradientTransform="translate(7.74832 7.07689) rotate(180) scale(0.707643 1.03888)">
<stop stop-color="#FF6600"/>
<stop offset="0.5" stop-color="#FF4500"/>
<stop offset="0.7" stop-color="#FC4301"/>
<stop offset="0.82" stop-color="#F43F07"/>
<stop offset="0.92" stop-color="#E53812"/>
<stop offset="1" stop-color="#D4301F"/>
</radialGradient>
<radialGradient id="paint4_radial_522_5025" cx="0" cy="0" r="1" gradientUnits="userSpaceOnUse" gradientTransform="translate(4.22686 7.07689) scale(0.707644 1.03888)">
<stop stop-color="#FF6600"/>
<stop offset="0.5" stop-color="#FF4500"/>
<stop offset="0.7" stop-color="#FC4301"/>
<stop offset="0.82" stop-color="#F43F07"/>
<stop offset="0.92" stop-color="#E53812"/>
<stop offset="1" stop-color="#D4301F"/>
</radialGradient>
<radialGradient id="paint5_radial_522_5025" cx="0" cy="0" r="1" gradientUnits="userSpaceOnUse" gradientTransform="translate(6.01663 9.1363) scale(2.49526 1.64581)">
<stop stop-color="#172E35"/>
<stop offset="0.29" stop-color="#0E1C21"/>
<stop offset="0.73" stop-color="#030708"/>
<stop offset="1"/>
</radialGradient>
<radialGradient id="paint6_radial_522_5025" cx="0" cy="0" r="1" gradientUnits="userSpaceOnUse" gradientTransform="translate(8.21753 1.59876) scale(2.19035)">
<stop stop-color="#FEFFFF"/>
<stop offset="0.4" stop-color="#FEFFFF"/>
<stop offset="0.51" stop-color="#F9FCFC"/>
<stop offset="0.62" stop-color="#EDF3F5"/>
<stop offset="0.7" stop-color="#DEE9EC"/>
<stop offset="0.72" stop-color="#D8E4E8"/>
<stop offset="0.76" stop-color="#CCD8DF"/>
<stop offset="0.8" stop-color="#C8D5DD"/>
<stop offset="0.83" stop-color="#CCD6DE"/>
<stop offset="0.85" stop-color="#D8DBE2"/>
<stop offset="0.88" stop-color="#EDE3E9"/>
<stop offset="0.9" stop-color="#FFEBEF"/>
</radialGradient>
<radialGradient id="paint7_radial_522_5025" cx="0" cy="0" r="1" gradientUnits="userSpaceOnUse" gradientTransform="translate(7.30438 3.98661) scale(1.79533)">
<stop offset="0.48" stop-color="#7A9299"/>
<stop offset="0.67" stop-color="#172E35"/>
<stop offset="0.75"/>
<stop offset="0.82" stop-color="#172E35"/>
</radialGradient>
<clipPath id="clip0_522_5025">
<rect width="12" height="12" fill="white"/>
</clipPath>
</defs>
</svg>
