<svg width="20" height="20" viewBox="0 0 20 20" fill="none" xmlns="http://www.w3.org/2000/svg">
<path d="M2 10.8448H6.93273V9.15524H2V1.42231C2.00001 1.34891 2.01864 1.27678 2.05404 1.21304C2.08944 1.14929 2.1404 1.09612 2.20189 1.05877C2.26339 1.02142 2.33329 1.00118 2.40471 1.00005C2.47613 0.998916 2.54661 1.01693 2.60919 1.0523L17.7872 9.63C17.8516 9.66646 17.9054 9.72002 17.9428 9.78511C17.9803 9.85019 18 9.9244 18 10C18 10.0756 17.9803 10.1498 17.9428 10.2149C17.9054 10.28 17.8516 10.3335 17.7872 10.37L2.60919 18.9477C2.54661 18.9831 2.47613 19.0011 2.40471 18.9999C2.33329 18.9988 2.26339 18.9786 2.20189 18.9412C2.1404 18.9039 2.08944 18.8507 2.05404 18.787C2.01864 18.7232 2.00001 18.6511 2 18.5777V10.8448Z" fill="#B7CFDE"/>
</svg>
