<svg width="24" height="24" viewBox="0 0 24 24" fill="none" xmlns="http://www.w3.org/2000/svg">
<path d="M3.34128 17.0001C2.91855 16.2691 2.58995 15.4875 2.36328 14.6741C2.85659 14.4232 3.27088 14.0407 3.56031 13.569C3.84975 13.0972 4.00305 12.5546 4.00325 12.0012C4.00346 11.4477 3.85057 10.905 3.56148 10.4331C3.2724 9.96112 2.8584 9.57834 2.36528 9.32707C2.81732 7.69255 3.67801 6.20002 4.86628 4.99007C5.33037 5.29179 5.8689 5.45923 6.42226 5.47385C6.97562 5.48847 7.52223 5.3497 8.00161 5.0729C8.48099 4.7961 8.87443 4.39207 9.13841 3.90551C9.40238 3.41895 9.52659 2.86884 9.49728 2.31607C11.1394 1.89169 12.8625 1.89238 14.5043 2.31807C14.4752 2.87083 14.5997 3.42086 14.8639 3.90728C15.128 4.39369 15.5216 4.79754 16.0011 5.07413C16.4806 5.35071 17.0272 5.48925 17.5806 5.47442C18.1339 5.45958 18.6723 5.29195 19.1363 4.99007C19.7153 5.58007 20.2293 6.25107 20.6613 7.00007C21.0943 7.74907 21.4183 8.53007 21.6393 9.32607C21.146 9.57697 20.7317 9.95944 20.4423 10.4312C20.1528 10.9029 19.9995 11.4455 19.9993 11.999C19.9991 12.5524 20.152 13.0951 20.4411 13.5671C20.7302 14.039 21.1442 14.4218 21.6373 14.6731C21.1852 16.3076 20.3246 17.8001 19.1363 19.0101C18.6722 18.7083 18.1337 18.5409 17.5803 18.5263C17.0269 18.5117 16.4803 18.6504 16.001 18.9272C15.5216 19.204 15.1281 19.6081 14.8642 20.0946C14.6002 20.5812 14.476 21.1313 14.5053 21.6841C12.8632 22.1084 11.1401 22.1078 9.49828 21.6821C9.52733 21.1293 9.40288 20.5793 9.1387 20.0929C8.87453 19.6064 8.48092 19.2026 8.00145 18.926C7.52198 18.6494 6.97534 18.5109 6.42201 18.5257C5.86868 18.5406 5.33024 18.7082 4.86628 19.0101C4.27527 18.407 3.76288 17.7317 3.34128 17.0001ZM9.00128 17.1961C10.0669 17.8107 10.8681 18.7971 11.2513 19.9661C11.7503 20.0131 12.2513 20.0141 12.7503 19.9671C13.1337 18.7979 13.9353 17.8115 15.0013 17.1971C16.0665 16.5808 17.3218 16.3795 18.5263 16.6321C18.8163 16.2241 19.0663 15.7891 19.2743 15.3341C18.4537 14.4175 18.0004 13.2303 18.0013 12.0001C18.0013 10.7401 18.4713 9.56307 19.2743 8.66607C19.0648 8.21122 18.8137 7.7767 18.5243 7.36807C17.3206 7.62038 16.0661 7.41954 15.0013 6.80407C13.9357 6.18944 13.1344 5.20305 12.7513 4.03407C12.2523 3.98707 11.7513 3.98607 11.2523 4.03307C10.8689 5.20221 10.0673 6.18863 9.00128 6.80307C7.93606 7.41938 6.68076 7.62059 5.47628 7.36807C5.18685 7.77635 4.93641 8.21093 4.72828 8.66607C5.54885 9.58263 6.00216 10.7699 6.00128 12.0001C6.00128 13.2601 5.53128 14.4371 4.72828 15.3341C4.93775 15.7889 5.18882 16.2234 5.47828 16.6321C6.682 16.3798 7.93649 16.5806 9.00128 17.1961ZM12.0013 15.0001C11.2056 15.0001 10.4426 14.684 9.87996 14.1214C9.31735 13.5588 9.00128 12.7957 9.00128 12.0001C9.00128 11.2044 9.31735 10.4414 9.87996 9.87875C10.4426 9.31614 11.2056 9.00007 12.0013 9.00007C12.7969 9.00007 13.56 9.31614 14.1226 9.87875C14.6852 10.4414 15.0013 11.2044 15.0013 12.0001C15.0013 12.7957 14.6852 13.5588 14.1226 14.1214C13.56 14.684 12.7969 15.0001 12.0013 15.0001ZM12.0013 13.0001C12.2665 13.0001 12.5209 12.8947 12.7084 12.7072C12.8959 12.5196 13.0013 12.2653 13.0013 12.0001C13.0013 11.7348 12.8959 11.4805 12.7084 11.293C12.5209 11.1054 12.2665 11.0001 12.0013 11.0001C11.7361 11.0001 11.4817 11.1054 11.2942 11.293C11.1066 11.4805 11.0013 11.7348 11.0013 12.0001C11.0013 12.2653 11.1066 12.5196 11.2942 12.7072C11.4817 12.8947 11.7361 13.0001 12.0013 13.0001Z" fill="#123247"/>
</svg>
