<svg width="24" height="24" viewBox="0 0 24 24" fill="none" xmlns="http://www.w3.org/2000/svg">
<path d="M7.55564 15.0511H4.72727C4.53439 15.0511 4.3494 14.9745 4.21301 14.8381C4.07662 14.7017 4 14.5168 4 14.3239V9.96024C4 9.76736 4.07662 9.58237 4.21301 9.44598C4.3494 9.30959 4.53439 9.23297 4.72727 9.23297H7.55564L11.4058 6.08242C11.4591 6.03875 11.5237 6.01111 11.592 6.00271C11.6604 5.99432 11.7298 6.00551 11.792 6.035C11.8543 6.06449 11.9069 6.11106 11.9437 6.16928C11.9805 6.22751 12 6.29499 12 6.36388V17.9202C12 17.9891 11.9805 18.0566 11.9437 18.1148C11.9069 18.1731 11.8543 18.2196 11.792 18.2491C11.7298 18.2786 11.6604 18.2898 11.592 18.2814C11.5237 18.273 11.4591 18.2454 11.4058 18.2017L7.55636 15.0511H7.55564ZM17.3862 18.0577L16.3564 17.0279C17.0458 16.4144 17.5974 15.6618 17.9747 14.8197C18.352 13.9775 18.5466 13.0649 18.5455 12.1421C18.5464 11.1719 18.3312 10.2138 17.9155 9.33724C17.4999 8.46067 16.8942 7.68769 16.1425 7.07442L17.1753 6.0417C18.0614 6.79191 18.7733 7.72641 19.2611 8.78002C19.749 9.83363 20.0011 10.981 20 12.1421C20 14.4861 18.992 16.5944 17.3862 18.0577ZM14.8095 15.481L13.7753 14.4468C14.1283 14.1753 14.4142 13.8262 14.6108 13.4266C14.8074 13.027 14.9095 12.5874 14.9091 12.1421C14.9091 11.1021 14.3636 10.1893 13.5418 9.67515L14.5884 8.62861C15.1392 9.03383 15.587 9.56304 15.8954 10.1734C16.2038 10.7838 16.3642 11.4582 16.3636 12.1421C16.3636 13.4817 15.76 14.6802 14.8095 15.481Z" fill="#123247"/>
</svg>
