<svg width="16" height="15" viewBox="0 0 16 15" fill="none" xmlns="http://www.w3.org/2000/svg">
<path d="M7.81109 0.543478C7.87335 0.364366 8.12665 0.364365 8.18891 0.543478L9.83522 5.27969C9.86268 5.3587 9.93642 5.41228 10.0201 5.41398L15.0332 5.51614C15.2228 5.52 15.3011 5.76091 15.15 5.87547L11.1543 8.90477C11.0876 8.95531 11.0595 9.042 11.0837 9.12206L12.5357 13.9214C12.5906 14.1029 12.3856 14.2518 12.23 14.1435L8.11424 11.2795C8.04557 11.2317 7.95443 11.2317 7.88576 11.2795L3.77 14.1435C3.61435 14.2518 3.40942 14.1029 3.46433 13.9214L4.91632 9.12206C4.94054 9.042 4.91238 8.95531 4.84572 8.90477L0.850048 5.87547C0.698942 5.76091 0.777218 5.52 0.966803 5.51614L5.97994 5.41398C6.06358 5.41228 6.13732 5.3587 6.16478 5.27969L7.81109 0.543478Z" fill="#0A2537"/>
</svg>
