<svg width="20" height="20" viewBox="0 0 20 20" fill="none" xmlns="http://www.w3.org/2000/svg">
<path fill-rule="evenodd" clip-rule="evenodd" d="M13.2809 17.8692C12.7218 19.1247 11.4631 20 10.0001 20C8.53696 20 7.2783 19.1247 6.71917 17.8692C6.34213 18.0037 5.936 18.0769 5.51276 18.0769C3.5302 18.0769 1.92301 16.4697 1.92301 14.4872C1.92301 14.064 1.99625 13.6579 2.13074 13.2809C0.875263 12.7217 0 11.4631 0 10C0 8.53694 0.875264 7.2783 2.13074 6.71915C1.99625 6.34213 1.92301 5.93603 1.92301 5.51282C1.92301 3.53026 3.5302 1.92308 5.51276 1.92308C5.936 1.92308 6.34213 1.99632 6.71917 2.13083C7.2783 0.875307 8.53696 0 10.0001 0C11.4631 0 12.7218 0.87528 13.2809 2.13077C13.6579 1.9963 14.064 1.92308 14.4872 1.92308C16.4697 1.92308 18.0769 3.53026 18.0769 5.51282C18.0769 5.93603 18.0037 6.34213 17.8692 6.71915C19.1247 7.2783 19.9999 8.53693 19.9999 10C19.9999 11.4631 19.1247 12.7217 17.8692 13.2809C18.0037 13.6579 18.0769 14.064 18.0769 14.4872C18.0769 16.4697 16.4697 18.0769 14.4872 18.0769C14.064 18.0769 13.6579 18.0037 13.2809 17.8692Z" fill="#24A7F1"/>
<path fill-rule="evenodd" clip-rule="evenodd" d="M8.87785 12.0029L14.8681 6.0127L15.9995 7.14407L8.9284 14.2151L8.92699 14.2137L8.92501 14.2157L5 10.6142L6.13137 9.48283L8.87785 12.0029Z" fill="white"/>
</svg>
