<svg width="12" height="12" viewBox="0 0 12 12" fill="none" xmlns="http://www.w3.org/2000/svg">
<path d="M8.58762 4.33173C9.3593 4.88532 10.3046 5.21104 11.3256 5.21104V3.2393C11.1324 3.23935 10.9397 3.21913 10.7506 3.17893V4.73097C9.72971 4.73097 8.7845 4.40525 8.01262 3.8517V7.87544C8.01262 9.88831 6.38666 11.52 4.38106 11.52C3.63272 11.52 2.93717 11.2929 2.35938 10.9035C3.01883 11.5802 3.93849 12 4.95594 12C6.96166 12 8.5877 10.3683 8.5877 8.35539V4.33173H8.58762V4.33173ZM9.29695 2.3425C8.90258 1.91011 8.64365 1.35134 8.58762 0.733587V0.47998H8.04272C8.17988 1.26514 8.64771 1.93593 9.29695 2.3425ZM3.62792 9.3589C3.40758 9.06897 3.28851 8.7143 3.28904 8.34962C3.28904 7.42901 4.03275 6.68256 4.95028 6.68256C5.12127 6.68252 5.29124 6.70879 5.4542 6.76069V4.74489C5.26376 4.71869 5.07156 4.70757 4.87944 4.71165V6.28065C4.71636 6.22876 4.54631 6.2024 4.37527 6.20257C3.45774 6.20257 2.71408 6.94894 2.71408 7.86967C2.71408 8.5207 3.08581 9.08433 3.62792 9.3589Z" fill="#FF004F"/>
<path d="M8.0125 3.85166C8.78438 4.40521 9.72959 4.73092 10.7505 4.73092V3.17889C10.1806 3.05707 9.67615 2.7582 9.29683 2.3425C8.64755 1.93589 8.17976 1.2651 8.0426 0.47998H6.61131V8.35531C6.60807 9.27341 5.86564 10.0168 4.95008 10.0168C4.41055 10.0168 3.93124 9.75871 3.62768 9.3589C3.08561 9.08433 2.71388 8.52066 2.71388 7.86971C2.71388 6.94906 3.45755 6.20261 4.37507 6.20261C4.55087 6.20261 4.72031 6.23008 4.87924 6.28069V4.71169C2.90887 4.75255 1.32422 6.36825 1.32422 8.35535C1.32422 9.34729 1.71883 10.2465 2.3593 10.9036C2.93709 11.2929 3.63264 11.52 4.38098 11.52C6.38662 11.52 8.01254 9.88827 8.01254 7.87544V3.85166H8.0125Z" fill="black"/>
<path d="M10.7513 3.1789V2.75924C10.2374 2.76002 9.73358 2.61559 9.29758 2.34247C9.68354 2.76653 10.1918 3.05893 10.7513 3.1789ZM8.04335 0.479992C8.03027 0.404956 8.02022 0.329425 8.01324 0.253607V0H6.03701V7.87541C6.03385 8.79338 5.29146 9.53678 4.37582 9.53678C4.107 9.53678 3.85319 9.47274 3.62842 9.35895C3.93198 9.75872 4.4113 10.0168 4.95082 10.0168C5.8663 10.0168 6.60885 9.27346 6.61205 8.35536V0.479992H8.04335ZM4.88007 4.7117V4.26495C4.71494 4.2423 4.54845 4.23093 4.38177 4.23101C2.37596 4.23097 0.75 5.86269 0.75 7.87541C0.75 9.13726 1.38903 10.2493 2.36008 10.9035C1.71962 10.2465 1.325 9.34722 1.325 8.35532C1.325 6.36826 2.90962 4.75256 4.88007 4.7117Z" fill="#00F2EA"/>
</svg>
