<svg width="16" height="16" viewBox="0 0 16 16" fill="none" xmlns="http://www.w3.org/2000/svg">
<path d="M6.48884 10.0617H2.7652C2.45658 10.0617 2.16061 9.93753 1.94238 9.71647C1.72416 9.49541 1.60156 9.1956 1.60156 8.88297V7.64294C1.60141 7.4889 1.63106 7.33632 1.68884 7.19384L3.49014 2.76531C3.53394 2.65731 3.60843 2.56492 3.70414 2.49987C3.79985 2.43481 3.91248 2.40002 4.02774 2.3999H13.8197C13.9741 2.3999 14.122 2.462 14.2312 2.57252C14.3403 2.68305 14.4016 2.83296 14.4016 2.98927V8.88297C14.4016 9.03928 14.3403 9.18919 14.2312 9.29972C14.122 9.41025 13.9741 9.47234 13.8197 9.47234H11.7939C11.7007 9.47232 11.6089 9.49495 11.5262 9.53833C11.4435 9.58172 11.3723 9.64458 11.3185 9.72165L8.14585 14.2751C8.10575 14.3327 8.0466 14.3738 7.97914 14.391C7.91168 14.4082 7.84037 14.4003 7.77814 14.3688L6.72273 13.8337C6.42571 13.6833 6.18842 13.4345 6.0503 13.1286C5.91218 12.8227 5.88153 12.4782 5.96345 12.1522L6.48884 10.0617ZM10.9107 8.53642V3.57864H4.41756L2.7652 7.64294V8.88297H6.48884C6.66606 8.883 6.84093 8.92403 7.00012 9.00294C7.15931 9.08184 7.2986 9.19654 7.40737 9.33827C7.51614 9.48 7.59151 9.64503 7.62774 9.82077C7.66396 9.9965 7.66008 10.1783 7.6164 10.3523L7.09102 12.4434C7.07457 12.5086 7.08067 12.5775 7.1083 12.6388C7.13593 12.7 7.18342 12.7498 7.24287 12.7799L7.62745 12.9744L10.3678 9.0421C10.5133 8.83347 10.6995 8.66255 10.9107 8.53642ZM12.0743 8.2936H13.2379V3.57864H12.0743V8.2936Z" fill="#123247"/>
</svg>
