<svg width="21" height="20" viewBox="0 0 21 20" fill="none" xmlns="http://www.w3.org/2000/svg">
<path d="M2.90601 12.523L6.30801 9.121L9.13601 11.95L12.293 8.793L10.5 7H15.5V12L13.707 10.207L9.13601 14.778L6.30801 11.95L3.83301 14.424C4.95642 16.1149 6.68063 17.3154 8.65624 17.7823C10.6318 18.2493 12.7111 17.9477 14.4726 16.9387C16.2342 15.9297 17.5462 14.2888 18.1429 12.3484C18.7397 10.4081 18.5764 8.31341 17.6863 6.48893C16.7961 4.66446 15.2456 3.24663 13.3491 2.52274C11.4525 1.79886 9.3516 1.82307 7.47219 2.59047C5.59279 3.35787 4.07541 4.81106 3.22754 6.65556C2.37967 8.50006 2.26473 10.5979 2.90601 12.524V12.523ZM1.36801 14.081L1.35801 14.071L1.36201 14.067C0.791937 12.787 0.498212 11.4012 0.500008 10C0.500008 4.477 4.97701 0 10.5 0C16.023 0 20.5 4.477 20.5 10C20.5 15.523 16.023 20 10.5 20C6.43001 20 2.93001 17.57 1.36801 14.081Z" fill="#123247"/>
</svg>
