<svg width="20" height="21" viewBox="0 0 20 21" fill="none" xmlns="http://www.w3.org/2000/svg">
<path d="M4.5499 4.19401C6.06203 2.88373 7.99655 2.16372 9.9974 2.16651C14.5999 2.16651 18.3307 5.89735 18.3307 10.4998C18.3307 12.2798 17.7724 13.9298 16.8224 15.2832L14.1641 10.4998H16.6641C16.6642 9.19287 16.2801 7.91468 15.5596 6.82423C14.8391 5.73377 13.814 4.87914 12.6117 4.36662C11.4094 3.85409 10.083 3.70626 8.79736 3.94153C7.51173 4.17679 6.32361 4.78476 5.38073 5.68985L4.5499 4.19401ZM15.4449 16.8057C13.9328 18.116 11.9982 18.836 9.9974 18.8332C5.3949 18.8332 1.66406 15.1023 1.66406 10.4998C1.66406 8.71985 2.2224 7.06985 3.1724 5.71651L5.83073 10.4998H3.33073C3.33062 11.8068 3.71469 13.085 4.43518 14.1755C5.15566 15.2659 6.18079 16.1205 7.38308 16.6331C8.58537 17.1456 9.9118 17.2934 11.1974 17.0582C12.4831 16.8229 13.6712 16.2149 14.6141 15.3098L15.4449 16.8057Z" fill="white"/>
</svg>
