<svg width="20" height="20" viewBox="0 0 20 20" fill="none" xmlns="http://www.w3.org/2000/svg">
<path d="M17.5 5.63091L15.8334 7.29758V3.33341H8.33335V7.50008H4.16669V16.6667H15.8334V14.3692L17.5 12.7026V17.5067C17.4998 17.7261 17.4125 17.9363 17.2574 18.0913C17.1022 18.2463 16.8918 18.3334 16.6725 18.3334H3.32752C3.21808 18.3327 3.10987 18.3103 3.00906 18.2678C2.90825 18.2252 2.81681 18.1631 2.73997 18.0852C2.66313 18.0073 2.60239 17.915 2.56122 17.8136C2.52005 17.7122 2.49925 17.6037 2.50002 17.4942V6.66675L7.50252 1.66675H16.665C17.125 1.66675 17.5 2.04591 17.5 2.49341V5.63091ZM18.1484 7.33925L19.3267 8.51841L12.845 15.0001L11.665 14.9984L11.6667 13.8217L18.1484 7.34008V7.33925Z" fill="#4DC06D"/>
</svg>
