<svg width="20" height="20" viewBox="0 0 20 20" fill="none" xmlns="http://www.w3.org/2000/svg">
<path d="M14.5 4.6H19V6.4H17.2V18.1C17.2 18.3387 17.1052 18.5676 16.9364 18.7364C16.7676 18.9052 16.5387 19 16.3 19H3.7C3.46131 19 3.23239 18.9052 3.0636 18.7364C2.89482 18.5676 2.8 18.3387 2.8 18.1V6.4H1V4.6H5.5V1.9C5.5 1.66131 5.59482 1.43239 5.7636 1.2636C5.93239 1.09482 6.1613 1 6.4 1H13.6C13.8387 1 14.0676 1.09482 14.2364 1.2636C14.4052 1.43239 14.5 1.66131 14.5 1.9V4.6ZM15.4 6.4H4.6V17.2H15.4V6.4ZM11.2726 11.8L12.8638 13.3912L11.5912 14.6638L10 13.0726L8.4088 14.6638L7.1362 13.3912L8.7274 11.8L7.1362 10.2088L8.4088 8.9362L10 10.5274L11.5912 8.9362L12.8638 10.2088L11.2726 11.8ZM7.3 2.8V4.6H12.7V2.8H7.3Z" fill="#EC2727"/>
</svg>
