<svg width="16" height="16" viewBox="0 0 16 16" fill="none" xmlns="http://www.w3.org/2000/svg">
<path d="M9.51429 5.93866H13.2379C13.5465 5.93866 13.8425 6.06284 14.0607 6.28389C14.279 6.50494 14.4016 6.80474 14.4016 7.11734V8.35732C14.4017 8.51135 14.3721 8.66392 14.3143 8.8064L12.5136 13.2353C12.4696 13.3433 12.395 13.4356 12.2992 13.5005C12.2034 13.5655 12.0907 13.6001 11.9754 13.6001H2.18338C2.02907 13.6001 1.88109 13.538 1.77197 13.4275C1.66286 13.317 1.60156 13.1671 1.60156 13.0108V7.11734C1.60156 6.96104 1.66286 6.81114 1.77197 6.70062C1.88109 6.59009 2.02907 6.528 2.18338 6.528H4.20927C4.30242 6.52803 4.39421 6.5054 4.47693 6.46202C4.55965 6.41864 4.63087 6.35577 4.68462 6.27871L7.85727 1.72487C7.89738 1.6673 7.95652 1.62619 8.02398 1.609C8.09144 1.59181 8.16275 1.59968 8.22498 1.63117L9.2804 2.1657C9.57742 2.31608 9.8147 2.56487 9.95282 2.87074C10.0909 3.17661 10.1216 3.52114 10.0397 3.84709L9.51429 5.93866ZM5.09247 7.46388V12.4214H11.5856L13.2379 8.35732V7.11734H9.51429C9.33707 7.11732 9.16219 7.07629 9.00301 6.99739C8.84382 6.91849 8.70453 6.8038 8.59576 6.66207C8.48699 6.52034 8.41162 6.35532 8.37539 6.1796C8.33916 6.00388 8.34304 5.82209 8.38673 5.64812L8.91211 3.55713C8.92855 3.49191 8.92245 3.42295 8.89482 3.36173C8.8672 3.3005 8.8197 3.25071 8.76025 3.22062L8.37567 3.02614L5.63531 6.95822C5.48985 7.16685 5.30367 7.33776 5.09247 7.46388ZM3.92884 7.70669H2.7652V12.4214H3.92884V7.70669Z" fill="#123247"/>
</svg>
