<svg width="24" height="24" viewBox="0 0 24 24" fill="none" xmlns="http://www.w3.org/2000/svg">
<circle cx="12" cy="12" r="12" fill="#62C55D"/>
<path fill-rule="evenodd" clip-rule="evenodd" d="M17.1048 5.22581C17.1048 4.82495 17.4298 4.5 17.8306 4.5C18.2315 4.5 18.5565 4.82495 18.5565 5.22581V5.95161C18.5565 6.35246 18.2315 6.67742 17.8306 6.67742C17.4298 6.67742 17.1048 6.35246 17.1048 5.95161V5.22581ZM5.97581 5.46774C5.57495 5.46774 5.25 5.7927 5.25 6.19355V13.4516C5.25 13.8525 5.57495 14.1774 5.97581 14.1774C6.37666 14.1774 6.70161 13.8525 6.70161 13.4516V6.19355C6.70161 5.7927 6.37666 5.46774 5.97581 5.46774ZM5.97581 15.1452C5.57495 15.1452 5.25 15.4701 5.25 15.871V18.0484C5.25 18.4492 5.57495 18.7742 5.97581 18.7742C6.37666 18.7742 6.70161 18.4492 6.70161 18.0484V15.871C6.70161 15.4701 6.37666 15.1452 5.97581 15.1452ZM7.18548 13.2097C7.18548 12.8088 7.51044 12.4839 7.91129 12.4839C8.31214 12.4839 8.6371 12.8088 8.6371 13.2097V15.1452C8.6371 15.546 8.96205 15.871 9.3629 15.871C9.76376 15.871 10.0887 15.546 10.0887 15.1452V13.2097C10.0887 12.8088 10.4137 12.4839 10.8145 12.4839C11.2154 12.4839 11.5403 12.8088 11.5403 13.2097V18.7742C11.5403 19.175 11.2154 19.5 10.8145 19.5C10.4137 19.5 10.0887 19.175 10.0887 18.7742V17.5645C10.0887 17.1637 9.76376 16.8387 9.3629 16.8387C8.96205 16.8387 8.6371 17.1637 8.6371 17.5645V18.7742C8.6371 19.175 8.31214 19.5 7.91129 19.5C7.51044 19.5 7.18548 19.175 7.18548 18.7742V13.2097ZM16.379 10.3065C15.9782 10.3065 15.6532 10.6314 15.6532 11.0323L15.6532 13.9355C15.6532 14.3363 15.3283 14.6613 14.9274 14.6613C14.5266 14.6613 14.2016 14.3363 14.2016 13.9355V8.12903C14.2016 7.72818 14.5266 7.40323 14.9274 7.40323C15.3283 7.40323 15.6532 7.72818 15.6532 8.12903L15.6532 8.6129C15.6532 9.01376 15.9782 9.33871 16.379 9.33871C16.7799 9.33871 17.1048 9.01375 17.1048 8.6129L17.1048 8.12903C17.1048 7.72818 17.4298 7.40323 17.8306 7.40323C18.2315 7.40323 18.5565 7.72818 18.5565 8.12903V13.9355C18.5565 14.3363 18.2315 14.6613 17.8306 14.6613C17.4298 14.6613 17.1048 14.3363 17.1048 13.9355L17.1048 11.0323C17.1048 10.6314 16.7799 10.3065 16.379 10.3065ZM7.91129 9.82258C7.51044 9.82258 7.18548 10.1475 7.18548 10.5484V11.2742C7.18548 11.675 7.51044 12 7.91129 12C8.31214 12 8.6371 11.675 8.6371 11.2742V10.5484C8.6371 10.1475 8.31214 9.82258 7.91129 9.82258ZM12.0242 14.6613C12.0242 14.2604 12.3491 13.9355 12.75 13.9355C13.1509 13.9355 13.4758 14.2604 13.4758 14.6613V15.3871C13.4758 15.7879 13.1509 16.1129 12.75 16.1129C12.3491 16.1129 12.0242 15.7879 12.0242 15.3871V14.6613ZM10.0887 7.16129C10.0887 6.76044 10.4137 6.43548 10.8145 6.43548C11.2154 6.43548 11.5403 6.76044 11.5403 7.16129V10.5484C11.5403 10.9492 11.2154 11.2742 10.8145 11.2742C10.4137 11.2742 10.0887 10.9492 10.0887 10.5484V7.16129ZM17.8306 14.9032C17.4298 14.9032 17.1048 15.2282 17.1048 15.629V16.3548C17.1048 16.7557 17.4298 17.0806 17.8306 17.0806C18.2315 17.0806 18.5565 16.7557 18.5565 16.3548V15.629C18.5565 15.2282 18.2315 14.9032 17.8306 14.9032ZM12.75 5.46774C12.3491 5.46774 12.0242 5.7927 12.0242 6.19355V8.6129C12.0242 9.01375 12.3491 9.33871 12.75 9.33871C13.1509 9.33871 13.4758 9.01375 13.4758 8.6129V6.19355C13.4758 5.7927 13.1509 5.46774 12.75 5.46774Z" fill="#123247"/>
</svg>
